<?xml version="1.0" encoding="utf-8"?>
<!-- Generator: Adobe Illustrator 16.0.0, SVG Export Plug-In . SVG Version: 6.00 Build 0)  -->
<!DOCTYPE svg PUBLIC "-//W3C//DTD SVG 1.1//EN" "http://www.w3.org/Graphics/SVG/1.1/DTD/svg11.dtd">
<svg version="1.1" id="Layer_1" xmlns="http://www.w3.org/2000/svg" xmlns:xlink="http://www.w3.org/1999/xlink" x="0px" y="0px"
	 width="338px" height="227.333px" viewBox="0 0 338 227.333" enable-background="new 0 0 338 227.333" xml:space="preserve">
<g>
	<defs>
		<rect id="SVGID_1_" x="7.667" y="11.2" width="323.375" height="203.8"/>
	</defs>
	<clipPath id="SVGID_2_">
		<use xlink:href="#SVGID_1_"  overflow="visible"/>
	</clipPath>
	<rect x="44.792" y="63.6" clip-path="url(#SVGID_2_)" fill="#FFFFFF" width="45" height="144"/>
	
		<rect x="45.167" y="63.5" clip-path="url(#SVGID_2_)" fill="none" stroke="#000000" stroke-linecap="round" stroke-linejoin="round" stroke-miterlimit="10" width="45" height="144"/>
	<rect x="44.792" y="18.6" opacity="0.207" clip-path="url(#SVGID_2_)" fill="#4ABB3C" width="45" height="45"/>
	
		<rect x="45.167" y="18.5" clip-path="url(#SVGID_2_)" fill="none" stroke="#000000" stroke-linecap="round" stroke-linejoin="round" stroke-miterlimit="10" width="45" height="45"/>
	
		<line clip-path="url(#SVGID_2_)" fill="none" stroke="#4ABB3C" stroke-width="2" stroke-linecap="round" stroke-linejoin="round" stroke-miterlimit="10" x1="44.667" y1="194.7" x2="44.667" y2="76.5"/>
	<polygon clip-path="url(#SVGID_2_)" fill="#4ABB3C" points="44.792,66.9 41.191,76.5 48.392,76.5 	"/>
	<polygon clip-path="url(#SVGID_2_)" fill="none" stroke="#4ABB3C" stroke-width="2" stroke-miterlimit="10" points="44.792,66.9 
		41.191,76.5 48.392,76.5 	"/>
	<polygon clip-path="url(#SVGID_2_)" fill="#4ABB3C" points="44.792,204.3 48.392,194.7 41.191,194.7 	"/>
	<polygon clip-path="url(#SVGID_2_)" fill="none" stroke="#4ABB3C" stroke-width="2" stroke-miterlimit="10" points="44.792,204.3 
		48.392,194.7 41.191,194.7 	"/>
	
		<line clip-path="url(#SVGID_2_)" fill="none" stroke="#4ABB3C" stroke-width="2" stroke-linecap="round" stroke-linejoin="round" stroke-miterlimit="10" x1="44.667" y1="50.7" x2="44.667" y2="31.5"/>
	<polygon clip-path="url(#SVGID_2_)" fill="#4ABB3C" points="44.792,21.9 41.191,31.5 48.392,31.5 	"/>
	<polygon clip-path="url(#SVGID_2_)" fill="none" stroke="#4ABB3C" stroke-width="2" stroke-miterlimit="10" points="44.792,21.9 
		41.191,31.5 48.392,31.5 	"/>
	<polygon clip-path="url(#SVGID_2_)" fill="#4ABB3C" points="44.792,60.3 48.392,50.7 41.191,50.7 	"/>
	<polygon clip-path="url(#SVGID_2_)" fill="none" stroke="#4ABB3C" stroke-width="2" stroke-miterlimit="10" points="44.792,60.3 
		48.392,50.7 41.191,50.7 	"/>
	<g clip-path="url(#SVGID_2_)">
		<path fill="#4ABB3C" d="M12.774,45.22l4.416-11.424h1.68l4.416,11.424H12.774z M14.822,43.939h6.304l-3.088-8.784h-0.032
			L14.822,43.939z"/>
	</g>
	<g clip-path="url(#SVGID_2_)">
		<path fill="#4ABB3C" d="M23.575,36.947h1.744l1.984,2.896l2.064-2.896h1.632l-2.848,3.809l3.2,4.464h-1.744l-2.304-3.424
			l-2.304,3.424h-1.648l3.104-4.352L23.575,36.947z"/>
	</g>
	<g clip-path="url(#SVGID_2_)">
		<path fill="#4ABB3C" d="M18.391,130.104h1.744L22.119,133l2.064-2.896h1.632l-2.848,3.809l3.2,4.464h-1.744l-2.304-3.424
			l-2.304,3.424h-1.648l3.104-4.352L18.391,130.104z"/>
	</g>
	<rect x="108.292" y="93.975" clip-path="url(#SVGID_2_)" fill="#FFFFFF" width="45" height="113.625"/>
	
		<rect x="108.167" y="94.5" clip-path="url(#SVGID_2_)" fill="none" stroke="#000000" stroke-linecap="round" stroke-linejoin="round" stroke-miterlimit="10" width="45" height="113"/>
	<rect x="108.292" y="77.1" opacity="0.207" clip-path="url(#SVGID_2_)" fill="#4ABB3C" width="45" height="16.875"/>
	
		<rect x="108.167" y="77.5" clip-path="url(#SVGID_2_)" fill="none" stroke="#000000" stroke-linecap="round" stroke-linejoin="round" stroke-miterlimit="10" width="45" height="17"/>
	<rect x="171.792" y="131.1" clip-path="url(#SVGID_2_)" fill="#FFFFFF" width="45" height="76.5"/>
	
		<rect x="172.167" y="131.5" clip-path="url(#SVGID_2_)" fill="none" stroke="#000000" stroke-linecap="round" stroke-linejoin="round" stroke-miterlimit="10" width="45" height="76"/>
	<rect x="171.792" y="86.1" opacity="0.207" clip-path="url(#SVGID_2_)" fill="#4ABB3C" width="45" height="45"/>
	
		<rect x="172.167" y="86.5" clip-path="url(#SVGID_2_)" fill="none" stroke="#000000" stroke-linecap="round" stroke-linejoin="round" stroke-miterlimit="10" width="45" height="45"/>
	<rect x="234.292" y="72.6" clip-path="url(#SVGID_2_)" fill="#FFFFFF" width="45" height="135"/>
	
		<rect x="234.167" y="72.5" clip-path="url(#SVGID_2_)" fill="none" stroke="#000000" stroke-linecap="round" stroke-linejoin="round" stroke-miterlimit="10" width="45" height="135"/>
	<rect x="234.292" y="72.6" opacity="0.207" clip-path="url(#SVGID_2_)" fill="#BB251D" width="45" height="45"/>
	
		<rect x="234.167" y="72.5" clip-path="url(#SVGID_2_)" fill="none" stroke="#000000" stroke-linecap="round" stroke-linejoin="round" stroke-miterlimit="10" width="45" height="45"/>
	
		<line clip-path="url(#SVGID_2_)" fill="none" stroke="#BB1909" stroke-width="2" stroke-linecap="round" stroke-linejoin="round" stroke-miterlimit="10" x1="278.667" y1="104.06" x2="278.667" y2="85.291"/>
	<polygon clip-path="url(#SVGID_2_)" fill="#BB1909" points="278.919,75.691 275.32,85.291 282.52,85.291 	"/>
	<polygon clip-path="url(#SVGID_2_)" fill="none" stroke="#BB1909" stroke-width="2" stroke-miterlimit="10" points="
		278.919,75.691 275.32,85.291 282.52,85.291 	"/>
	<polygon clip-path="url(#SVGID_2_)" fill="#BB1909" points="278.919,113.659 282.52,104.06 275.32,104.06 	"/>
	<polygon clip-path="url(#SVGID_2_)" fill="none" stroke="#BB1909" stroke-width="2" stroke-miterlimit="10" points="
		278.919,113.659 282.52,104.06 275.32,104.06 	"/>
	
		<line clip-path="url(#SVGID_2_)" fill="none" stroke="#4ABB3C" stroke-width="2" stroke-linecap="round" stroke-linejoin="round" stroke-miterlimit="10" x1="234.667" y1="194.7" x2="234.667" y2="86.656"/>
	<polygon clip-path="url(#SVGID_2_)" fill="#4ABB3C" points="234.292,77.057 230.692,86.656 237.891,86.656 	"/>
	<polygon clip-path="url(#SVGID_2_)" fill="none" stroke="#4ABB3C" stroke-width="2" stroke-miterlimit="10" points="
		234.292,77.057 230.692,86.656 237.891,86.656 	"/>
	<polygon clip-path="url(#SVGID_2_)" fill="#4ABB3C" points="234.292,204.3 237.891,194.7 230.692,194.7 	"/>
	<polygon clip-path="url(#SVGID_2_)" fill="none" stroke="#4ABB3C" stroke-width="2" stroke-miterlimit="10" points="234.292,204.3 
		237.891,194.7 230.692,194.7 	"/>
	<g clip-path="url(#SVGID_2_)">
		<path fill="#BB1909" d="M289.525,97.876l4.416-11.424h1.68l4.416,11.424H289.525z M291.573,96.596h6.304l-3.088-8.784h-0.032
			L291.573,96.596z"/>
	</g>
	<g clip-path="url(#SVGID_2_)">
		<path fill="#BB1909" d="M300.325,89.604h1.744l1.984,2.896l2.063-2.896h1.632l-2.848,3.809l3.199,4.464h-1.744l-2.303-3.424
			l-2.305,3.424H300.1l3.104-4.352L300.325,89.604z"/>
	</g>
	
		<line clip-path="url(#SVGID_2_)" fill="none" stroke="#000000" stroke-width="2" stroke-linecap="round" stroke-linejoin="round" stroke-miterlimit="10" stroke-dasharray="8,8" x1="283.907" y1="63.538" x2="23.583" y2="63.538"/>
	<g clip-path="url(#SVGID_2_)">
		<path d="M297.582,59.604v1.217h0.032c0.618-0.938,1.509-1.408,2.672-1.408c0.512,0,0.976,0.106,1.392,0.32
			c0.416,0.213,0.71,0.575,0.88,1.088c0.277-0.448,0.643-0.795,1.096-1.04s0.953-0.368,1.496-0.368c0.416,0,0.793,0.045,1.129,0.136
			s0.623,0.232,0.863,0.424c0.24,0.192,0.427,0.44,0.561,0.744c0.133,0.304,0.199,0.67,0.199,1.096v6.064h-1.359v-5.424
			c0-0.256-0.021-0.496-0.064-0.72c-0.043-0.225-0.123-0.419-0.24-0.584c-0.117-0.166-0.279-0.297-0.487-0.393
			s-0.478-0.144-0.808-0.144c-0.672,0-1.201,0.191-1.584,0.575c-0.385,0.385-0.576,0.896-0.576,1.536v5.152h-1.36v-5.424
			c0-0.267-0.024-0.512-0.072-0.736c-0.048-0.224-0.13-0.418-0.247-0.584c-0.118-0.165-0.275-0.293-0.473-0.384
			s-0.451-0.136-0.76-0.136c-0.395,0-0.734,0.08-1.016,0.239c-0.283,0.16-0.513,0.353-0.688,0.576
			c-0.177,0.225-0.304,0.456-0.384,0.696s-0.121,0.44-0.121,0.6v5.152h-1.359v-8.272H297.582z"/>
		<path d="M317.278,67.844c-0.235,0.139-0.561,0.208-0.977,0.208c-0.352,0-0.632-0.099-0.84-0.296s-0.312-0.52-0.312-0.968
			c-0.373,0.448-0.808,0.771-1.304,0.968s-1.032,0.296-1.608,0.296c-0.373,0-0.728-0.043-1.063-0.128s-0.627-0.219-0.872-0.399
			c-0.246-0.182-0.439-0.419-0.584-0.713c-0.145-0.293-0.216-0.647-0.216-1.063c0-0.47,0.079-0.854,0.239-1.152
			c0.16-0.298,0.371-0.541,0.633-0.728s0.56-0.328,0.896-0.424c0.336-0.097,0.68-0.177,1.031-0.24
			c0.373-0.074,0.729-0.131,1.064-0.168s0.631-0.091,0.888-0.16c0.256-0.069,0.458-0.171,0.608-0.304
			c0.148-0.134,0.224-0.328,0.224-0.584c0-0.299-0.056-0.539-0.168-0.721c-0.112-0.181-0.257-0.319-0.433-0.416
			c-0.176-0.096-0.373-0.159-0.592-0.191s-0.435-0.048-0.648-0.048c-0.575,0-1.055,0.109-1.439,0.328
			c-0.384,0.219-0.592,0.632-0.624,1.239h-1.36c0.021-0.512,0.129-0.943,0.32-1.296c0.192-0.352,0.448-0.637,0.768-0.855
			c0.32-0.219,0.686-0.376,1.097-0.473c0.411-0.096,0.851-0.144,1.319-0.144c0.374,0,0.744,0.026,1.113,0.08
			c0.367,0.053,0.701,0.162,1,0.327c0.298,0.165,0.537,0.396,0.719,0.694s0.272,0.687,0.272,1.165v4.247
			c0,0.319,0.019,0.554,0.056,0.703c0.037,0.148,0.163,0.223,0.377,0.223c0.117,0,0.256-0.021,0.416-0.063V67.844z M315.069,63.604
			c-0.17,0.128-0.395,0.221-0.672,0.279s-0.568,0.106-0.871,0.144c-0.305,0.037-0.611,0.079-0.92,0.127
			c-0.311,0.048-0.588,0.125-0.832,0.23c-0.246,0.106-0.446,0.258-0.601,0.454c-0.155,0.196-0.231,0.465-0.231,0.804
			c0,0.224,0.045,0.412,0.135,0.565c0.092,0.154,0.209,0.279,0.353,0.374c0.144,0.096,0.312,0.165,0.504,0.207
			c0.192,0.043,0.395,0.063,0.608,0.063c0.447,0,0.832-0.061,1.152-0.183c0.319-0.122,0.58-0.276,0.783-0.462
			s0.352-0.388,0.448-0.604c0.097-0.218,0.144-0.422,0.144-0.613V63.604z"/>
		<path d="M317.885,59.604h1.744l1.984,2.896l2.063-2.896h1.632l-2.848,3.809l3.199,4.464h-1.744l-2.303-3.424l-2.305,3.424h-1.648
			l3.104-4.352L317.885,59.604z"/>
	</g>
</g>
</svg>
